<svg width="40" height="40" viewBox="0 0 40 40" fill="none" xmlns="http://www.w3.org/2000/svg">
<path d="M0 20C0 8.95431 8.95431 0 20 0C31.0457 0 40 8.95431 40 20C40 31.0457 31.0457 40 20 40C8.95431 40 0 31.0457 0 20Z" fill="#CDCDCD"/>
<path d="M27 23.7692V25.9231C27 26.2087 26.8865 26.4826 26.6846 26.6846C26.4826 26.8865 26.2087 27 25.9231 27H23.7692M23.7692 13H25.9231C26.2087 13 26.4826 13.1135 26.6846 13.3154C26.8865 13.5174 27 13.7913 27 14.0769V16.2308M13 16.2308V14.0769C13 13.7913 13.1135 13.5174 13.3154 13.3154C13.5174 13.1135 13.7913 13 14.0769 13H16.2308M16.2308 27H14.0769C13.7913 27 13.5174 26.8865 13.3154 26.6846C13.1135 26.4826 13 26.2087 13 25.9231V23.7692M23.4031 23.7692C23.0968 23.1261 22.6146 22.583 22.0123 22.2027C21.41 21.8224 20.7123 21.6205 20 21.6205C19.2877 21.6205 18.59 21.8224 17.9877 22.2027C17.3854 22.583 16.9032 23.1261 16.5969 23.7692M22.1538 17.3077C22.1538 18.4972 21.1895 19.4615 20 19.4615C18.8105 19.4615 17.8462 18.4972 17.8462 17.3077C17.8462 16.1182 18.8105 15.1538 20 15.1538C21.1895 15.1538 22.1538 16.1182 22.1538 17.3077Z" stroke="white" stroke-linecap="round" stroke-linejoin="round"/>
</svg>
