<svg width="20" height="20" viewBox="0 0 20 20" fill="none" xmlns="http://www.w3.org/2000/svg">
<path fill-rule="evenodd" clip-rule="evenodd" d="M9.99999 0C8.67043 0.0163146 7.35711 0.294397 6.13502 0.818367C4.91293 1.34234 3.80601 2.10193 2.87748 3.05377C1.94895 4.00561 1.21699 5.13106 0.7234 6.36583C0.229813 7.6006 -0.0157345 8.92052 0.000781069 10.2502C-0.0157932 12.382 0.634268 14.4656 1.86005 16.2097C3.08583 17.9538 4.82602 19.2711 6.83724 19.9774C7.3372 20.0664 7.52418 19.7594 7.52418 19.4904C7.52418 19.2464 7.51219 18.4404 7.51219 17.5814C4.99938 18.0554 4.34944 16.9534 4.14945 16.3813C3.93032 15.8223 3.57899 15.3248 3.12553 14.9313C2.77556 14.7393 2.2756 14.2643 3.11253 14.2513C3.43471 14.2883 3.74304 14.4032 4.01096 14.5859C4.27887 14.7687 4.49833 15.0139 4.65041 15.3003C4.91019 15.7953 5.35594 16.1669 5.88962 16.3332C6.4233 16.4996 7.00119 16.4471 7.49619 16.1873L7.56318 16.1513C7.60364 15.6314 7.82971 15.1434 8.20013 14.7763C5.97531 14.5193 3.65149 13.6353 3.65149 9.7142C3.63526 8.69963 4.0007 7.71597 4.67541 6.95814C4.37012 6.07182 4.40577 5.10356 4.7754 4.24209C4.7754 4.24209 5.61334 3.97308 7.52518 5.29211C9.1597 4.8301 10.8903 4.8301 12.5248 5.29211C14.4366 3.95908 15.2746 4.24209 15.2746 4.24209C15.6442 5.10356 15.6799 6.07182 15.3746 6.95814C16.0519 7.71448 16.418 8.69905 16.3995 9.7142C16.3995 13.6483 14.0627 14.5193 11.8378 14.7763C12.0783 15.0272 12.2628 15.3264 12.3792 15.6539C12.4955 15.9814 12.5411 16.3299 12.5128 16.6763C12.5128 18.0474 12.5008 19.1494 12.5008 19.4954C12.5008 19.7644 12.6878 20.0844 13.1877 19.9824C15.1927 19.2686 16.9257 17.9482 18.1463 16.2046C19.3669 14.461 20.0145 12.3806 19.9992 10.2522C20.016 8.92236 19.7706 7.60222 19.2772 6.36722C18.7837 5.13221 18.0518 4.00653 17.1232 3.05448C16.1947 2.10243 15.0876 1.34265 13.8654 0.818557C12.6432 0.294462 11.3297 0.0163134 9.99999 0Z" fill="#646464"/>
</svg>
