<svg width="20" height="20" viewBox="0 0 20 20" fill="none" xmlns="http://www.w3.org/2000/svg">
<path d="M19.8051 8.0417H18.9983V7.9997H9.98961V11.9997H15.6461C15.2176 13.2123 14.4106 14.2553 13.3439 14.9749C12.2772 15.6946 11.0072 16.0528 9.72128 15.9969C8.43533 15.9409 7.2014 15.4736 6.20139 14.664C5.20138 13.8544 4.48819 12.7452 4.16696 11.5C3.84574 10.2547 3.93346 8.93935 4.41721 7.7477C4.90096 6.55606 5.75513 5.5512 6.85382 4.88126C7.9525 4.21132 9.23757 3.91175 10.5196 4.0267C11.8016 4.14165 13.0127 4.66504 13.9744 5.51973L16.8052 2.69076C15.1214 1.12823 12.9503 0.192789 10.6572 0.041816C8.36406 -0.109157 6.08886 0.533558 4.21441 1.86182C2.33996 3.19008 0.980663 5.12281 0.365238 7.33482C-0.250187 9.54684 -0.0841816 11.9031 0.835324 14.0072C1.75483 16.1113 3.37171 17.8347 5.41392 18.8876C7.45612 19.9405 9.79901 20.2584 12.0484 19.7881C14.2977 19.3177 16.3162 18.0876 17.7643 16.3049C19.2124 14.5222 20.0016 12.2955 19.9992 9.99968C19.9985 9.34226 19.9334 8.68649 19.8051 8.0417Z" fill="#FFC107"/>
<path d="M1.13409 5.34473L4.42326 7.7557C4.78169 6.86367 5.34988 6.071 6.07977 5.44471C6.80966 4.81843 7.67979 4.37695 8.61656 4.15763C9.55333 3.9383 10.5292 3.94758 11.4616 4.18467C12.394 4.42175 13.2556 4.87968 13.9734 5.51973L16.8052 2.69076C15.6816 1.64107 14.3305 0.864796 12.8572 0.422422C11.384 -0.0199515 9.82841 -0.116469 8.31171 0.140392C6.795 0.397253 5.35816 1.00055 4.11316 1.90327C2.86817 2.80599 1.84866 3.98374 1.13409 5.34473Z" fill="#FF3D00"/>
<path d="M9.98961 19.9996C12.4713 19.998 14.8629 19.0708 16.6961 17.3996L13.5931 14.7806C12.8431 15.3484 11.9698 15.7316 11.044 15.8993C10.1181 16.067 9.16572 16.0144 8.264 15.7458C7.36227 15.4772 6.53657 15.0002 5.85381 14.3533C5.17105 13.7065 4.65044 12.908 4.33417 12.0227L1.08104 14.5396C1.91753 16.1819 3.19237 17.5611 4.76458 18.5247C6.33679 19.4883 8.14512 19.9987 9.98961 19.9996Z" fill="#4CAF50"/>
<path d="M19.8051 8.0417H18.9983V7.9997H9.98961V11.9997H15.6461C15.2509 13.1076 14.5401 14.076 13.6011 14.7856L16.6961 17.3996C17.7493 16.4779 18.59 15.3391 19.1602 14.0616C19.7305 12.7842 20.0167 11.3983 19.9992 9.99968C19.9985 9.34226 19.9334 8.68649 19.8051 8.0417Z" fill="#1976D2"/>
</svg>
