<svg width="20" height="20" viewBox="0 0 20 20" fill="none" xmlns="http://www.w3.org/2000/svg">
<path fill-rule="evenodd" clip-rule="evenodd" d="M20 10C20 11.9778 19.4135 13.9112 18.3147 15.5557C17.2159 17.2002 15.6541 18.4819 13.8268 19.2388C11.9996 19.9957 9.98891 20.1937 8.0491 19.8078C6.10929 19.422 4.32746 18.4696 2.92894 17.0711C1.53041 15.6725 0.578004 13.8907 0.192152 11.9509C-0.1937 10.0111 0.00433284 8.00042 0.761209 6.17316C1.51809 4.3459 2.79981 2.78412 4.4443 1.6853C6.08879 0.58649 8.02219 0 10 0C12.6522 0 15.1957 1.05357 17.0711 2.92893C18.9464 4.80429 20 7.34783 20 10Z" fill="#41B1DB"/>
<path d="M15.998 6.924C16.0085 7.48675 15.9009 8.04545 15.682 8.564C15.3005 9.45728 14.8047 10.2973 14.207 11.063C13.4317 12.1717 12.5195 13.178 11.492 14.058C10.986 14.5035 10.3776 14.8168 9.72099 14.97C9.50559 15.0201 9.28097 15.0145 9.06836 14.9536C8.85575 14.8927 8.6622 14.7786 8.506 14.622C8.05159 14.168 7.72613 13.6013 7.563 12.98C7.222 11.834 6.906 10.68 6.576 9.53199C6.4725 9.15024 6.32659 8.78128 6.14099 8.43199C6.10085 8.35738 6.0568 8.28495 6.009 8.215C5.724 7.807 5.53099 7.766 5.09999 8.02499C4.94599 8.11699 4.8 8.213 4.648 8.314C4.567 8.37 4.51399 8.37299 4.44799 8.28999C4.31799 8.11799 4.179 7.95199 4.041 7.78999C3.986 7.72399 3.974 7.67099 4.049 7.60999C4.85977 6.87444 5.70682 6.1799 6.58699 5.52899C6.90587 5.28204 7.29575 5.14426 7.69899 5.136C7.89885 5.13569 8.09594 5.18275 8.27411 5.27331C8.45228 5.36387 8.60645 5.49535 8.72399 5.65699C8.98651 6.03738 9.15355 6.4754 9.21099 6.93399C9.39299 7.98199 9.53799 9.03399 9.81099 10.069C9.89118 10.4179 10.0183 10.7543 10.189 11.069C10.412 11.451 10.656 11.5 10.963 11.184C11.6223 10.5114 12.1303 9.70579 12.453 8.82099C12.517 8.62372 12.5401 8.41549 12.521 8.20899C12.5221 8.12112 12.5055 8.03393 12.4721 7.95264C12.4387 7.87135 12.3892 7.79764 12.3267 7.73592C12.2641 7.6742 12.1897 7.62574 12.108 7.59345C12.0263 7.56116 11.9388 7.5457 11.851 7.548C11.5696 7.52835 11.2872 7.56471 11.02 7.65499C10.897 7.69499 10.837 7.676 10.887 7.533C11.1118 6.77645 11.5618 6.10635 12.177 5.61199C12.5444 5.3375 12.9688 5.149 13.4188 5.06038C13.8688 4.97177 14.3329 4.9853 14.777 5.09999C15.0867 5.1741 15.3648 5.34488 15.5711 5.58759C15.7773 5.83031 15.9009 6.13235 15.924 6.45C15.955 6.614 15.968 6.78199 15.987 6.93199" fill="white"/>
</svg>
