<svg width="20" height="20" viewBox="0 0 20 20" fill="none" xmlns="http://www.w3.org/2000/svg">
<g clip-path="url(#clip0_965_5372)">
<path d="M10 20C15.5228 20 20 15.5228 20 10C20 4.47715 15.5228 0 10 0C4.47715 0 0 4.47715 0 10C0 15.5228 4.47715 20 10 20Z" fill="#009846"/>
<path fill-rule="evenodd" clip-rule="evenodd" d="M8.81396 4.01722L9.81827 6.08321C9.81827 6.08321 10.0096 6.70493 9.59828 7.01578C7.32664 8.74701 9.52654 13.2664 12.2908 12.5442C12.7929 12.4151 13.1612 12.946 13.1612 12.946L14.1655 15.012C14.9067 16.3032 11.5734 17.1019 9.95696 15.6337C8.44572 14.2611 7.39359 11.8747 7.25969 11.5734C7.10187 11.2865 5.87279 8.98613 5.72453 6.94883C5.56671 4.77284 8.24964 2.6351 8.80918 4.01722H8.81396Z" fill="#FEFEFE"/>
</g>
<defs>
<clipPath id="clip0_965_5372">
<rect width="20" height="20" fill="white"/>
</clipPath>
</defs>
</svg>
